HIERARCHY
ROOT Hips
{
  OFFSET -24.029 22.938 -267.682
  CHANNELS 6 Xposition Yposition Zposition Zrotation Xrotation Yrotation
  JOINT LeftUpLeg
  {
    OFFSET 8.040 -7.738 2.466
    CHANNELS 6 Xposition Yposition Zposition Zrotation Xrotation Yrotation
    JOINT LeftLeg
    {
      OFFSET 0.000 -48.337 0.000
      CHANNELS 6 Xposition Yposition Zposition Zrotation Xrotation Yrotation
      JOINT LeftFoot
      {
        OFFSET 0.000 -41.764 -0.000
        CHANNELS 6 Xposition Yposition Zposition Zrotation Xrotation Yrotation
        End Site
        {
          OFFSET 0.000 -9.603 5.545
        }
      }
    }
  }
  JOINT RightUpLeg
  {
    OFFSET -7.926 -7.480 2.090
    CHANNELS 6 Xposition Yposition Zposition Zrotation Xrotation Yrotation
    JOINT RightLeg
    {
      OFFSET 0.000 -48.342 0.000
      CHANNELS 6 Xposition Yposition Zposition Zrotation Xrotation Yrotation
      JOINT RightFoot
      {
        OFFSET -0.000 -41.144 -0.000
        CHANNELS 6 Xposition Yposition Zposition Zrotation Xrotation Yrotation
        End Site
        {
          OFFSET 0.000 -9.911 5.722
        }
      }
    }
  }
  JOINT Spine
  {
    OFFSET 0.000 5.891 -5.891
    CHANNELS 6 Xposition Yposition Zposition Zrotation Xrotation Yrotation
    JOINT LeftShoulder
    {
      OFFSET -0.000 37.329 0.000
      CHANNELS 6 Xposition Yposition Zposition Zrotation Xrotation Yrotation
      JOINT LeftArm
      {
        OFFSET 22.182 0.000 -0.000
        CHANNELS 6 Xposition Yposition Zposition Zrotation Xrotation Yrotation
        JOINT LeftForeArm
        {
          OFFSET 24.729 -0.000 0.000
          CHANNELS 6 Xposition Yposition Zposition Zrotation Xrotation Yrotation
          JOINT LeftHand
          {
            OFFSET 28.155 0.000 -0.000
            CHANNELS 6 Xposition Yposition Zposition Zrotation Xrotation Yrotation
            JOINT LeftHandThumb1
            {
            OFFSET 4.970 -0.620 3.390
            CHANNELS 6 Xposition Yposition Zposition Zrotation Xrotation Yrotation
              JOINT LeftHandThumb2
              {
              OFFSET 2.150 -0.000 0.000
              CHANNELS 6 Xposition Yposition Zposition Zrotation Xrotation Yrotation
                JOINT LeftHandThumb3
                {
                OFFSET 2.200 -0.000 0.000
                CHANNELS 6 Xposition Yposition Zposition Zrotation Xrotation Yrotation
                  JOINT LeftHandThumb4
                  {
                  OFFSET 1.700 -0.000 0.000
                  CHANNELS 6 Xposition Yposition Zposition Zrotation Xrotation Yrotation
                  }
                }
              }
            }
            JOINT LeftHandIndex1
            {
            OFFSET 8.730 0.680 2.070
            CHANNELS 6 Xposition Yposition Zposition Zrotation Xrotation Yrotation
              JOINT LeftHandIndex2
              {
              OFFSET 2.670 -0.000 0.000
              CHANNELS 6 Xposition Yposition Zposition Zrotation Xrotation Yrotation
                JOINT LeftHandIndex3
                {
                OFFSET 2.130 -0.000 0.000
                CHANNELS 6 Xposition Yposition Zposition Zrotation Xrotation Yrotation
                  JOINT LeftHandIndex4
                  {
                  OFFSET 1.800 -0.000 0.000
                  CHANNELS 6 Xposition Yposition Zposition Zrotation Xrotation Yrotation
                  }
                }
              }
            }
            JOINT LeftHandMiddle1
            {
            OFFSET 9.220 0.670 0.550
            CHANNELS 6 Xposition Yposition Zposition Zrotation Xrotation Yrotation
              JOINT LeftHandMiddle2
              {
              OFFSET 2.660 -0.000 0.000
              CHANNELS 6 Xposition Yposition Zposition Zrotation Xrotation Yrotation
                JOINT LeftHandMiddle3
                {
                OFFSET 2.280 -0.000 0.000
                CHANNELS 6 Xposition Yposition Zposition Zrotation Xrotation Yrotation
                  JOINT LeftHandMiddle4
                  {
                  OFFSET 1.500 -0.000 0.000
                  CHANNELS 6 Xposition Yposition Zposition Zrotation Xrotation Yrotation
                  }
                }
              }
            }
            JOINT LeftHandRing1
            {
            OFFSET 9.250 0.670 -1.130
            CHANNELS 6 Xposition Yposition Zposition Zrotation Xrotation Yrotation
              JOINT LeftHandRing2
              {
              OFFSET 2.470 -0.000 0.000
              CHANNELS 6 Xposition Yposition Zposition Zrotation Xrotation Yrotation
                JOINT LeftHandRing3
                {
                OFFSET 2.210 -0.000 0.000
                CHANNELS 6 Xposition Yposition Zposition Zrotation Xrotation Yrotation
                  JOINT LeftHandRing4
                  {
                  OFFSET 1.800 -0.000 0.000
                  CHANNELS 6 Xposition Yposition Zposition Zrotation Xrotation Yrotation
                  }
                }
              }
            }
            JOINT LeftHandPinky1
            {
            OFFSET 9.350 0.660 -2.720
            CHANNELS 6 Xposition Yposition Zposition Zrotation Xrotation Yrotation
              JOINT LeftHandPinky2
              {
              OFFSET 1.630 -0.000 0.000
              CHANNELS 6 Xposition Yposition Zposition Zrotation Xrotation Yrotation
                JOINT LeftHandPinky3
                {
                OFFSET 1.710 -0.000 0.000
                CHANNELS 6 Xposition Yposition Zposition Zrotation Xrotation Yrotation
                  JOINT LeftHandPinky4
                  {
                  OFFSET 1.800 -0.000 0.000
                  CHANNELS 6 Xposition Yposition Zposition Zrotation Xrotation Yrotation
                  }
                }
              }
            }
          }
        }
      }
    }
    JOINT RightShoulder
    {
      OFFSET -0.000 37.329 0.000
      CHANNELS 6 Xposition Yposition Zposition Zrotation Xrotation Yrotation
      JOINT RightArm
      {
        OFFSET -20.567 0.000 -0.000
        CHANNELS 6 Xposition Yposition Zposition Zrotation Xrotation Yrotation
        JOINT RightForeArm
        {
          OFFSET -28.746 0.000 0.000
          CHANNELS 6 Xposition Yposition Zposition Zrotation Xrotation Yrotation
          JOINT RightHand
          {
            OFFSET -25.486 0.000 -0.000
            CHANNELS 6 Xposition Yposition Zposition Zrotation Xrotation Yrotation
            JOINT RightHandThumb1
            {
            OFFSET -4.970 -0.620 3.390
            CHANNELS 6 Xposition Yposition Zposition Zrotation Xrotation Yrotation
              JOINT RightHandThumb2
              {
              OFFSET -2.150 0.000 0.000
              CHANNELS 6 Xposition Yposition Zposition Zrotation Xrotation Yrotation
                JOINT RightHandThumb3
                {
                OFFSET -2.200 0.000 0.000
                CHANNELS 6 Xposition Yposition Zposition Zrotation Xrotation Yrotation
                  JOINT RightHandThumb4
                  {
                  OFFSET -1.700 0.000 0.000
                  CHANNELS 6 Xposition Yposition Zposition Zrotation Xrotation Yrotation
                  }
                }
              }
            }
            JOINT RightHandIndex1
            {
            OFFSET -8.730 0.680 2.070
            CHANNELS 6 Xposition Yposition Zposition Zrotation Xrotation Yrotation
              JOINT RightHandIndex2
              {
              OFFSET -2.670 0.000 0.000
              CHANNELS 6 Xposition Yposition Zposition Zrotation Xrotation Yrotation
                JOINT RightHandIndex3
                {
                OFFSET -2.130 0.000 0.000
                CHANNELS 6 Xposition Yposition Zposition Zrotation Xrotation Yrotation
                  JOINT RightHandIndex4
                  {
                  OFFSET -1.800 0.000 0.000
                  CHANNELS 6 Xposition Yposition Zposition Zrotation Xrotation Yrotation
                  }
                }
              }
            }
            JOINT RightHandMiddle1
            {
            OFFSET -9.220 0.670 0.550
            CHANNELS 6 Xposition Yposition Zposition Zrotation Xrotation Yrotation
              JOINT RightHandMiddle2
              {
              OFFSET -2.660 0.000 0.000
              CHANNELS 6 Xposition Yposition Zposition Zrotation Xrotation Yrotation
                JOINT RightHandMiddle3
                {
                OFFSET -2.280 0.000 0.000
                CHANNELS 6 Xposition Yposition Zposition Zrotation Xrotation Yrotation
                  JOINT RightHandMiddle4
                  {
                  OFFSET -1.500 0.000 0.000
                  CHANNELS 6 Xposition Yposition Zposition Zrotation Xrotation Yrotation
                  }
                }
              }
            }
            JOINT RightHandRing1
            {
            OFFSET -9.250 0.670 -1.130
            CHANNELS 6 Xposition Yposition Zposition Zrotation Xrotation Yrotation
              JOINT RightHandRing2
              {
              OFFSET -2.470 0.000 0.000
              CHANNELS 6 Xposition Yposition Zposition Zrotation Xrotation Yrotation
                JOINT RightHandRing3
                {
                OFFSET -2.210 0.000 0.000
                CHANNELS 6 Xposition Yposition Zposition Zrotation Xrotation Yrotation
                  JOINT RightHandRing4
                  {
                  OFFSET -1.800 0.000 0.000
                  CHANNELS 6 Xposition Yposition Zposition Zrotation Xrotation Yrotation
                  }
                }
              }
            }
            JOINT RightHandPinky1
            {
            OFFSET -9.350 0.660 -2.720
            CHANNELS 6 Xposition Yposition Zposition Zrotation Xrotation Yrotation
              JOINT RightHandPinky2
              {
              OFFSET -1.630 0.000 0.000
              CHANNELS 6 Xposition Yposition Zposition Zrotation Xrotation Yrotation
                JOINT RightHandPinky3
                {
                OFFSET -1.710 0.000 0.000
                CHANNELS 6 Xposition Yposition Zposition Zrotation Xrotation Yrotation
                  JOINT RightHandPinky4
                  {
                  OFFSET -1.800 0.000 0.000
                  CHANNELS 6 Xposition Yposition Zposition Zrotation Xrotation Yrotation
                  }
                }
              }
            }
          }
        }
      }
    }
    JOINT Neck
    {
      OFFSET -0.000 37.329 0.000
      CHANNELS 6 Xposition Yposition Zposition Zrotation Xrotation Yrotation
      JOINT Head
      {
        OFFSET -0.000 17.388 -0.000
        CHANNELS 6 Xposition Yposition Zposition Zrotation Xrotation Yrotation
        End Site
        {
          OFFSET -0.000 0.070 -0.000
        }
      }
    }
  }
}
MOTION
Frames:	4
Frame Time:	0.0333333
-51.5527 24.404 -311.988 5.04281 8.22249 -5.76189 7.76868 -7.4133 1.42632 -2.73268 -1.90522 5.00303 -2.98023e-06 -52.2851 -7.15256e-05 -6.34492 0.735316 0.0817616 0 -37.8229 4.76837e-05 0.365281 -18.1381 0.335908 -7.58135 -7.51152 2.79641 -4.67422 -3.09217 4.84246 1.19209e-05 -48.9516 7.15256e-05 2.37862 1.95995 -0.0813975 5.96046e-06 -40.391 -0.000119209 7.60836 -16.2812 6.33502 -1.19209e-05 5.95974 -5.95973 0.609059 -7.47321 -0.403352 1.78814e-05 37.3278 4.76837e-05 -33.0745 1.23797e-05 4.75562 19.7041 1.19209e-05 2.38419e-05 -2.16637 -44.0958 1.18325 26.5009 2.38419e-05 -9.53674e-05 -5.1658e-05 -1.19529e-05 -84.3731 30.3089 2.38419e-05 5.21541e-06 25.2258 -0.242211 -8.56029 0.0062 0.0497 0.0339 0 0 0 0 0.0215 0 0 0 0 0 0.022 0 0 0 0 0 0.017 0 0 0 0 -0.0068 0.0873 0.0207 0 0 0 0 0.0267 0 0 0 0 0 0.0213 0 0 0 0 0 0.018 0 0 0 0 -0.0067 0.0922 0.0055 0 0 0 0 0.0266 0 0 0 0 0 0.0228 0 0 0 0 0 0.015 0 0 0 0 -0.0067 0.0925 -0.0113 0 0 0 0 0.0247 0 0 0 0 0 0.0221 0 0 0 0 0 0.018 0 0 0 0 -0.0066 0.0935 -0.0272 0 0 0 0 0.0163 0 0 0 0 0 0.0171 0 0 0 0 0 0.018 0 0 0 0 1.78814e-05 37.3278 4.76837e-05 28.3616 -4.05543e-06 -4.45276 -21.0414 1.19209e-05 -4.76837e-05 34.0237 27.0543 48.41 -30.5571 -2.68221e-05 -2.38419e-05 1.30541e-05 1.1099e-05 77.5056 -24.6927 0 3.57628e-05 120.113 1.87816 7.02042 -0.0062 0.0497 0.0339 13.5 0 0 0 0.0215 0 0 -13.5 0 0 0.022 0 0 -13.5 0 0 0.017 0 0 0 0 0.0068 0.0873 0.0207 13.5 0 0 0 0.0267 0 24 0 0 0 0.0213 0 27 0 0 0 0.018 0 0 0 0 0.0067 0.0922 0.0055 13.5 0 0 0 0.0266 0 24 0 0 0 0.0228 0 27 0 0 0 0.015 0 0 0 0 0.0067 0.0925 -0.0113 13.5 0 0 0 0.0247 0 24 0 0 0 0.0221 0 27 0 0 0 0.018 0 0 0 0 0.0066 0.0935 -0.0272 13.5 0 0 0 0.0163 0 24 0 0 0 0.0171 0 27 0 0 0 0.018 0 0 0 0 1.78814e-05 37.3278 4.76837e-05 10.0183 5.45115 -0.961439 -1.78814e-05 18.4129 -7.15256e-05 1.14192e-05 -1.06722e-05 1.28066e-06 
-51.527 24.4195 -312.016 4.96766 7.7258 -5.72639 7.79453 -7.45423 1.38118 -2.73525 -1.66065 5.03714 8.9407e-06 -52.2653 -2.38419e-05 -6.35157 1.41967 0.158011 -2.98023e-06 -37.8294 -4.76837e-05 0.437094 -18.592 0.396988 -7.61933 -7.57845 2.7632 -4.59956 -2.76934 4.89403 0 -48.9403 -7.15256e-05 2.44905 2.50249 -0.106998 -5.96046e-06 -40.3946 2.38419e-05 7.37339 -16.4435 6.16657 1.78814e-05 5.97448 -5.97441 0.514431 -6.99401 -0.362095 -1.19209e-05 37.3278 -2.38419e-05 -33.1478 1.10991e-05 4.62768 19.6854 -2.98023e-06 0 -2.04221 -43.6119 1.13055 26.6779 0.000119209 -2.38419e-05 4.07158e-05 -1.70754e-06 -82.7529 29.0186 0 -8.19564e-06 23.7493 -0.484349 -11.614 0.0062 0.0497 0.0339 0 0 0 0 0.0215 0 0 0 0 0 0.022 0 0 0 0 0 0.017 0 0 0 0 -0.0068 0.0873 0.0207 0 0 0 0 0.0267 0 0 0 0 0 0.0213 0 0 0 0 0 0.018 0 0 0 0 -0.0067 0.0922 0.0055 0 0 0 0 0.0266 0 0 0 0 0 0.0228 0 0 0 0 0 0.015 0 0 0 0 -0.0067 0.0925 -0.0113 0 0 0 0 0.0247 0 0 0 0 0 0.0221 0 0 0 0 0 0.018 0 0 0 0 -0.0066 0.0935 -0.0272 0 0 0 0 0.0163 0 0 0 0 0 0.0171 0 0 0 0 0 0.018 0 0 0 0 -1.19209e-05 37.3278 -2.38419e-05 28.4007 -3.62854e-06 -4.28436 -21.2596 -5.96046e-06 0 33.9275 27.3024 48.4576 -30.5066 1.19209e-05 0 7.86047e-07 6.83019e-06 76.8704 -24.7188 -2.98023e-06 1.19209e-05 120.524 1.51064 7.36207 -0.0062 0.0497 0.0339 23.9625 0 0 0 0.0215 0 0 -23.9625 0 0 0.022 0 0 -23.9625 0 0 0.017 0 0 0 0 0.0068 0.0873 0.0207 23.9625 0 0 0 0.0267 0 42.6 0 0 0 0.0213 0 47.925 0 0 0 0.018 0 0 0 0 0.0067 0.0922 0.0055 23.9625 0 0 0 0.0266 0 42.6 0 0 0 0.0228 0 47.925 0 0 0 0.015 0 0 0 0 0.0067 0.0925 -0.0113 23.9625 0 0 0 0.0247 0 42.6 0 0 0 0.0221 0 47.925 0 0 0 0.018 0 0 0 0 0.0066 0.0935 -0.0272 23.9625 0 0 0 0.0163 0 42.6 0 0 0 0.0171 0 47.925 0 0 0 0.018 0 0 0 0 -1.19209e-05 37.3278 -2.38419e-05 10.1017 5.28462 -0.940073 1.78814e-05 18.4611 -4.76837e-05 2.13443e-06 -1.02453e-05 -8.53774e-07 
-51.4655 24.4195 -311.991 4.84686 7.30304 -5.65431 7.81846 -7.48503 1.33414 -2.65424 -1.46749 5.13462 0 -52.2396 2.38419e-05 -6.46271 2.12413 0.240557 5.96046e-06 -37.8513 0 0.520405 -18.9329 0.468434 -7.6497 -7.64177 2.74475 -4.42937 -2.88782 4.97253 -5.96046e-06 -48.918 2.38419e-05 2.40833 3.85704 -0.162097 5.96046e-06 -40.4402 -4.76837e-05 7.12655 -16.716 5.99558 -5.96046e-06 5.98879 -5.98884 0.450361 -6.56364 -0.337535 5.96046e-06 37.3278 2.38419e-05 -33.2658 1.15259e-05 4.54366 19.657 8.9407e-06 0 -1.80372 -43.2727 0.987429 26.9613 2.38419e-05 -4.76837e-05 -1.12185e-05 -3.41509e-06 -81.4415 28.0638 0 4.84288e-06 22.3784 -0.598516 -14.5679 0.0062 0.0497 0.0339 0 0 0 0 0.0215 0 0 0 0 0 0.022 0 0 0 0 0 0.017 0 0 0 0 -0.0068 0.0873 0.0207 0 0 0 0 0.0267 0 0 0 0 0 0.0213 0 0 0 0 0 0.018 0 0 0 0 -0.0067 0.0922 0.0055 0 0 0 0 0.0266 0 0 0 0 0 0.0228 0 0 0 0 0 0.015 0 0 0 0 -0.0067 0.0925 -0.0113 0 0 0 0 0.0247 0 0 0 0 0 0.0221 0 0 0 0 0 0.018 0 0 0 0 -0.0066 0.0935 -0.0272 0 0 0 0 0.0163 0 0 0 0 0 0.0171 0 0 0 0 0 0.018 0 0 0 0 5.96046e-06 37.3278 2.38419e-05 28.3832 -3.62854e-06 -4.16213 -21.4553 -2.38419e-05 -2.38419e-05 33.8258 27.4762 48.5395 -30.436 -5.96046e-06 0 4.36935e-05 5.12264e-06 76.2406 -24.7553 2.98023e-06 0 119.746 1.12355 8.64715 -0.0062 0.0497 0.0339 31.995 0 0 0 0.0215 0 0 -31.995 0 0 0.022 0 0 -31.995 0 0 0.017 0 0 0 0 0.0068 0.0873 0.0207 31.995 0 0 0 0.0267 0 56.88 0 0 0 0.0213 0 63.99 0 0 0 0.018 0 0 0 0 0.0067 0.0922 0.0055 31.995 0 0 0 0.0266 0 56.88 0 0 0 0.0228 0 63.99 0 0 0 0.015 0 0 0 0 0.0067 0.0925 -0.0113 31.995 0 0 0 0.0247 0 56.88 0 0 0 0.0221 0 63.99 0 0 0 0.018 0 0 0 0 0.0066 0.0935 -0.0272 31.995 0 0 0 0.0163 0 56.88 0 0 0 0.0171 0 63.99 0 0 0 0.018 0 0 0 0 5.96046e-06 37.3278 2.38419e-05 10.465 5.01993 -0.925947 1.19209e-05 18.5378 -2.38419e-05 1.23264e-05 -1.10991e-05 1.28066e-06 
-51.3245 24.4198 -311.896 4.71999 6.9223 -5.49704 7.83683 -7.5186 1.28546 -2.59805 -1.32771 5.25416 -1.78814e-05 -52.1991 -2.38419e-05 -6.57843 2.91578 0.336107 5.96046e-06 -37.8959 0 0.638656 -19.1614 0.570134 -7.68038 -7.68617 2.73082 -4.1846 -4.01865 4.99211 0 -48.8755 2.38419e-05 2.2774 7.16633 -0.284254 0 -40.6217 2.38419e-05 6.92698 -17.1982 5.87685 1.19209e-05 6.00073 -6.00069 0.372814 -6.14881 -0.275035 0 37.3278 0 -33.2901 1.28066e-05 4.59312 19.6124 -7.45058e-06 -2.38419e-05 -2.15288 -44.3795 0.404294 27.0289 -2.38419e-05 2.38419e-05 -8.75507e-05 -1.70755e-05 -82.2561 29.0748 0 -4.84288e-06 20.9753 -0.585867 -16.1625 0.0062 0.0497 0.0339 0 0 0 0 0.0215 0 0 0 0 0 0.022 0 0 0 0 0 0.017 0 0 0 0 -0.0068 0.0873 0.0207 0 0 0 0 0.0267 0 0 0 0 0 0.0213 0 0 0 0 0 0.018 0 0 0 0 -0.0067 0.0922 0.0055 0 0 0 0 0.0266 0 0 0 0 0 0.0228 0 0 0 0 0 0.015 0 0 0 0 -0.0067 0.0925 -0.0113 0 0 0 0 0.0247 0 0 0 0 0 0.0221 0 0 0 0 0 0.018 0 0 0 0 -0.0066 0.0935 -0.0272 0 0 0 0 0.0163 0 0 0 0 0 0.0171 0 0 0 0 0 0.018 0 0 0 0 0 37.3278 0 28.4542 -1.4941e-06 -4.17087 -21.5939 2.38419e-05 -2.38419e-05 34.0281 27.4357 48.8503 -30.5221 -1.78814e-05 0 -1.54257e-05 1.10991e-05 75.3285 -24.7877 8.9407e-06 -2.38419e-05 124.559 0.986874 10.0172 -0.0062 0.0497 0.0339 38.0911 0 0 0 0.0215 0 0 -38.0911 0 0 0.022 0 0 -38.0911 0 0 0.017 0 0 0 0 0.0068 0.0873 0.0207 38.0911 0 0 0 0.0267 0 67.7175 0 0 0 0.0213 0 76.1822 0 0 0 0.018 0 0 0 0 0.0067 0.0922 0.0055 38.0911 0 0 0 0.0266 0 67.7175 0 0 0 0.0228 0 76.1822 0 0 0 0.015 0 0 0 0 0.0067 0.0925 -0.0113 38.0911 0 0 0 0.0247 0 67.7175 0 0 0 0.0221 0 76.1822 0 0 0 0.018 0 0 0 0 0.0066 0.0935 -0.0272 38.0911 0 0 0 0.0163 0 67.7175 0 0 0 0.0171 0 76.1822 0 0 0 0.018 0 0 0 0 0 37.3278 0 11.0084 4.75094 -0.923071 -1.19209e-05 18.6173 -4.76837e-05 1.0352e-05 -9.8184e-06 -4.26887e-07 
